# xmcd
#
# Track frame offsets: 
#        150
#        22318
#        35005
#        49878
#        61201
#        73899
#        92740
#        106729
#        123566
#        135504
#        153219
#        165853
#
# Disc length: 2360 seconds
#
# Revision: 10
# Processed by: cddbd v1.5.1PL2 Copyright (c) Steve Scherf et al.
# Submitted via: ExactAudioCopy v0.90b4
#
DISCID=9f09360c
DTITLE=Various Artist - The Blues Collection [CD2] [CAN]
DYEAR=1999
DGENRE=Blues
TTITLE0=Joe Turner - Wee Baby Blues
TTITLE1=John Lee Hooker - Frisco Blues
TTITLE2=Billie Holiday - Don't Explain
TTITLE3=Elmore James - Look On Yonder Wall
TTITLE4=B.B. King - Please Love Me
TTITLE5=Johnny Otis - Slow Fuse
TTITLE6=Billie Holiday - God Bless The Child
TTITLE7=Gatemouth Moore - Goin' Down Slow
TTITLE8=Gatemouth Moore - Did You Ever Love A Woman
TTITLE9=Joe Turner - Piney Brown Blues
TTITLE10=Louis Jordan - Outskirts Of Town
TTITLE11=Billie Holiday - Fooling Myself
EXTD=
EXTT0=
EXTT1=
EXTT2=
EXTT3=
EXTT4=
EXTT5=
EXTT6=
EXTT7=
EXTT8=
EXTT9=
EXTT10=
EXTT11=
PLAYORDER=
